<svg xmlns="http://www.w3.org/2000/svg" width="240" height="240" viewBox="0 0 240 240">
  <rect width="240" height="240" fill="#F8F5EF"/>
  <rect x="35" y="35" width="170" height="170" rx="18" fill="#F1C34B" stroke="#171512" stroke-width="14"/>
  <path transform="translate(44 42) scale(4.75)" fill="#171512" d="M10.8 25V8.2h4.1v1.5c.9-1.2 2.2-1.8 3.9-1.8 4 0 6.7 3 6.7 7.1s-2.8 7.1-6.8 7.1c-1.6 0-2.9-.5-3.8-1.6V25h-4.1Zm7.3-6.4c1.9 0 3.1-1.4 3.1-3.6s-1.2-3.6-3.1-3.6c-1.9 0-3.2 1.4-3.2 3.6s1.3 3.6 3.2 3.6Z"/>
</svg>
