<svg xmlns="http://www.w3.org/2000/svg" width="1200" height="630" viewBox="0 0 1200 630">
  <rect width="1200" height="630" fill="#F8F5EF"/>
  <path d="M60 118 H1140" stroke="#171512" stroke-opacity="0.14" stroke-width="3"/>

  <g transform="translate(60, 58)">
    <rect x="0" y="0" width="46" height="46" rx="5" fill="#F1C34B" stroke="#171512" stroke-width="3"/>
    <path transform="scale(1.4375)" fill="#171512" d="M10.8 25V8.2h4.1v1.5c.9-1.2 2.2-1.8 3.9-1.8 4 0 6.7 3 6.7 7.1s-2.8 7.1-6.8 7.1c-1.6 0-2.9-.5-3.8-1.6V25h-4.1Zm7.3-6.4c1.9 0 3.1-1.4 3.1-3.6s-1.2-3.6-3.1-3.6c-1.9 0-3.2 1.4-3.2 3.6s1.3 3.6 3.2 3.6Z"/>
  </g>

  <text x="126" y="91" font-family="Inter, system-ui, -apple-system, sans-serif" font-size="28" font-weight="800" fill="#171512">schedule.pizza</text>

  <text x="60" y="290" font-family="Inter, system-ui, -apple-system, sans-serif" font-size="72" font-weight="820" fill="#171512">easiest way to find a</text>
  <text x="60" y="374" font-family="Inter, system-ui, -apple-system, sans-serif" font-size="72" font-weight="820" fill="#171512">time</text>

  <text x="60" y="454" font-family="Inter, system-ui, -apple-system, sans-serif" font-size="28" font-weight="430" fill="#403B33">Hosts share one booking link. People and agents pick a time.</text>
  <rect x="60" y="514" width="1080" height="6" fill="#8F3D2B"/>
</svg>
